<?xml version="1.0" encoding="UTF-8" standalone="no"?>
<!-- Created with Inkscape (http://www.inkscape.org/) -->
<svg
   xmlns:svg="http://www.w3.org/2000/svg"
   xmlns="http://www.w3.org/2000/svg"
   version="1.0"
   width="575"
   height="575"
   id="svg2">
  <defs
     id="defs5" />
  <path
     d="M 25,562.5 L 25,550 L 37.5,550 L 50,550 L 50,562.5 L 50,575 L 37.5,575 L 25,575 L 25,562.5 z M 75,562.5 L 75,550 L 87.5,550 L 100,550 L 100,512.5 L 100,475 L 87.5,475 L 75,475 L 75,487.5 L 75,500 L 62.5,500 L 50,500 L 50,487.5 L 50,475 L 37.5,475 L 25,475 L 25,412.5 L 25,350 L 37.5,350 L 50,350 L 50,337.5 L 50,325 L 62.5,325 L 75,325 L 75,312.5 L 75,300 L 87.5,300 L 100,300 L 100,312.5 L 100,325 L 112.5,325 L 125,325 L 125,312.5 L 125,300 L 150,300 L 175,300 L 175,275 L 175,250 L 150,250 L 125,250 L 125,262.5 L 125,275 L 112.5,275 L 100,275 L 100,262.5 L 100,250 L 87.5,250 L 75,250 L 75,262.5 L 75,275 L 62.5,275 L 50,275 L 50,262.5 L 50,250 L 62.5,250 L 75,250 L 75,237.5 L 75,225 L 62.5,225 L 50,225 L 50,212.5 L 50,200 L 62.5,200 L 75,200 L 75,212.5 L 75,225 L 112.5,225 L 150,225 L 150,212.5 L 150,200 L 137.5,200 L 125,200 L 125,187.5 L 125,175 L 112.5,175 L 100,175 L 100,162.5 L 100,150 L 62.5,150 L 25,150 L 25,137.5 L 25,125 L 37.5,125 L 50,125 L 50,112.5 L 50,100 L 25,100 L 0,100 L 0,50 L 0,-2.8421709e-014 L 12.5,-2.8421709e-014 L 25,-2.8421709e-014 L 25,25 L 25,50 L 37.5,50 L 50,50 L 50,75 L 50,100 L 87.5,100 L 125,100 L 125,87.5 L 125,75 L 137.5,75 L 150,75 L 150,62.5 L 150,50 L 137.5,50 L 125,50 L 125,37.5 L 125,25 L 100,25 L 75,25 L 75,12.5 L 75,-2.8421709e-014 L 100,-2.8421709e-014 L 125,-2.8421709e-014 L 125,12.5 L 125,25 L 137.5,25 L 150,25 L 150,37.5 L 150,50 L 162.5,50 L 175,50 L 175,62.5 L 175,75 L 200,75 L 225,75 L 225,87.5 L 225,100 L 200,100 L 175,100 L 175,87.5 L 175,75 L 162.5,75 L 150,75 L 150,112.5 L 150,150 L 187.5,150 L 225,150 L 225,137.5 L 225,125 L 237.50001,125 L 250.00001,125 L 250.00001,112.5 L 250.00001,100 L 262.50001,100 L 275.00001,100 L 275.00001,125 L 275.00001,150 L 287.50001,150 L 300.00001,150 L 300.00001,137.5 L 300.00001,125 L 312.50001,125 L 325.00001,125 L 325.00001,87.5 L 325.00001,50 L 312.50001,50 L 300.00001,50 L 300.00001,62.5 L 300.00001,75 L 287.50001,75 L 275.00001,75 L 275.00001,62.5 L 275.00001,50 L 287.50001,50 L 300.00001,50 L 300.00001,37.5 L 300.00001,25 L 287.50001,25 L 275.00001,25 L 275.00001,12.5 L 275.00001,-2.8421709e-014 L 300.00001,-2.8421709e-014 L 325.00001,-2.8421709e-014 L 325.00001,25 L 325.00001,50 L 337.50001,50 L 350.00001,50 L 350.00001,37.5 L 350.00001,25 L 362.50001,25 L 375.00001,25 L 375.00001,12.5 L 375.00001,-2.8421709e-014 L 387.50001,-2.8421709e-014 L 400.00001,-2.8421709e-014 L 400.00001,25 L 400.00001,50 L 412.50001,50 L 425.00001,50 L 425.00001,37.5 L 425.00001,25 L 437.50001,25 L 450.00001,25 L 450.00001,12.5 L 450.00001,-2.8421709e-014 L 462.50001,-2.8421709e-014 L 475.00001,-2.8421709e-014 L 475.00001,25 L 475.00001,50 L 450.00001,50 L 425.00001,50 L 425.00001,62.5 L 425.00001,75 L 400.00001,75 L 375.00001,75 L 375.00001,62.5 L 375.00001,50 L 362.50001,50 L 350.00001,50 L 350.00001,87.5 L 350.00001,125 L 375.00001,125 L 400.00001,125 L 400.00001,112.5 L 400.00001,100 L 412.50001,100 L 425.00001,100 L 425.00001,162.5 L 425.00001,225 L 437.50001,225 L 450.00001,225 L 450.00001,212.5 L 450.00001,200 L 462.50001,200 L 475.00001,200 L 475.00001,187.5 L 475.00001,175 L 462.50001,175 L 450.00001,175 L 450.00001,125 L 450.00001,75 L 475.00001,75 L 500.00001,75 L 500.00001,62.5 L 500.00001,50 L 512.50001,50 L 525.00001,50 L 525.00001,62.5 L 525.00001,75 L 550.00001,75 L 575.00001,75 L 575.00001,87.5 L 575.00001,100 L 550.00001,100 L 525.00001,100 L 525.00001,112.5 L 525.00001,125 L 537.50001,125 L 550.00001,125 L 550.00001,150 L 550.00001,175 L 562.50001,175 L 575.00001,175 L 575.00001,187.5 L 575.00001,200 L 562.50001,200 L 550.00001,200 L 550.00001,212.5 L 550.00001,225 L 562.50001,225 L 575.00001,225 L 575.00001,250 L 575.00001,275 L 562.50001,275 L 550.00001,275 L 550.00001,262.5 L 550.00001,250 L 537.50001,250 L 525.00001,250 L 525.00001,225 L 525.00001,200 L 500.00001,200 L 475.00001,200 L 475.00001,212.5 L 475.00001,225 L 487.50001,225 L 500.00001,225 L 500.00001,250 L 500.00001,275 L 512.50001,275 L 525.00001,275 L 525.00001,312.5 L 525.00001,350 L 537.50001,350 L 550.00001,350 L 550.00001,337.5 L 550.00001,325 L 562.50001,325 L 575.00001,325 L 575.00001,350 L 575.00001,375 L 562.50001,375 L 550.00001,375 L 550.00001,387.5 L 550.00001,400 L 537.50001,400 L 525.00001,400 L 525.00001,387.5 L 525.00001,375 L 500.00001,375 L 475.00001,375 L 475.00001,387.5 L 475.00001,400 L 487.50001,400 L 500.00001,400 L 500.00001,412.5 L 500.00001,425 L 487.50001,425 L 475.00001,425 L 475.00001,437.5 L 475.00001,450 L 462.50001,450 L 450.00001,450 L 450.00001,437.5 L 450.00001,425 L 437.50001,425 L 425.00001,425 L 425.00001,412.5 L 425.00001,400 L 400.00001,400 L 375.00001,400 L 375.00001,412.5 L 375.00001,425 L 387.50001,425 L 400.00001,425 L 400.00001,437.5 L 400.00001,450 L 412.50001,450 L 425.00001,450 L 425.00001,462.5 L 425.00001,475 L 437.50001,475 L 450.00001,475 L 450.00001,487.5 L 450.00001,500 L 400.00001,500 L 350.00001,500 L 350.00001,487.5 L 350.00001,475 L 337.50001,475 L 325.00001,475 L 325.00001,500 L 325.00001,525 L 337.50001,525 L 350.00001,525 L 350.00001,537.5 L 350.00001,550 L 337.50001,550 L 325.00001,550 L 325.00001,562.5 L 325.00001,575 L 312.50001,575 L 300.00001,575 L 300.00001,562.5 L 300.00001,550 L 287.50001,550 L 275.00001,550 L 275.00001,562.5 L 275.00001,575 L 262.50001,575 L 250.00001,575 L 250.00001,550 L 250.00001,525 L 275.00001,525 L 300.00001,525 L 300.00001,500 L 300.00001,475 L 287.50001,475 L 275.00001,475 L 275.00001,487.5 L 275.00001,500 L 262.50001,500 L 250.00001,500 L 250.00001,487.5 L 250.00001,475 L 237.50001,475 L 225,475 L 225,487.5 L 225,500 L 187.5,500 L 150,500 L 150,487.5 L 150,475 L 137.5,475 L 125,475 L 125,500 L 125,525 L 137.5,525 L 150,525 L 150,537.5 L 150,550 L 162.5,550 L 175,550 L 175,562.5 L 175,575 L 150,575 L 125,575 L 125,562.5 L 125,550 L 112.5,550 L 100,550 L 100,562.5 L 100,575 L 87.5,575 L 75,575 L 75,562.5 z M 325.00001,537.5 L 325.00001,525 L 312.50001,525 L 300.00001,525 L 300.00001,537.5 L 300.00001,550 L 312.50001,550 L 325.00001,550 L 325.00001,537.5 z M 75,462.5 L 75,450 L 112.5,450 L 150,450 L 150,462.5 L 150,475 L 162.5,475 L 175,475 L 175,462.5 L 175,450 L 187.5,450 L 200,450 L 200,425 L 200,400 L 187.5,400 L 175,400 L 175,387.5 L 175,375 L 162.5,375 L 150,375 L 150,362.5 L 150,350 L 112.5,350 L 75,350 L 75,362.5 L 75,375 L 62.5,375 L 50,375 L 50,387.5 L 50,400 L 62.5,400 L 75,400 L 75,412.5 L 75,425 L 62.5,425 L 50,425 L 50,450 L 50,475 L 62.5,475 L 75,475 L 75,462.5 z M 150,437.5 L 150,425 L 125,425 L 100,425 L 100,412.5 L 100,400 L 87.5,400 L 75,400 L 75,387.5 L 75,375 L 100,375 L 125,375 L 125,387.5 L 125,400 L 137.5,400 L 150,400 L 150,412.5 L 150,425 L 162.5,425 L 175,425 L 175,437.5 L 175,450 L 162.5,450 L 150,450 L 150,437.5 z M 275.00001,462.5 L 275.00001,450 L 287.50001,450 L 300.00001,450 L 300.00001,462.5 L 300.00001,475 L 312.50001,475 L 325.00001,475 L 325.00001,462.5 L 325.00001,450 L 337.50001,450 L 350.00001,450 L 350.00001,437.5 L 350.00001,425 L 337.50001,425 L 325.00001,425 L 325.00001,437.5 L 325.00001,450 L 312.50001,450 L 300.00001,450 L 300.00001,425 L 300.00001,400 L 287.50001,400 L 275.00001,400 L 275.00001,425 L 275.00001,450 L 262.50001,450 L 250.00001,450 L 250.00001,462.5 L 250.00001,475 L 262.50001,475 L 275.00001,475 L 275.00001,462.5 z M 400.00001,462.5 L 400.00001,450 L 387.50001,450 L 375.00001,450 L 375.00001,462.5 L 375.00001,475 L 387.50001,475 L 400.00001,475 L 400.00001,462.5 z M 450.00001,387.5 L 450.00001,375 L 462.50001,375 L 475.00001,375 L 475.00001,362.5 L 475.00001,350 L 462.50001,350 L 450.00001,350 L 450.00001,325 L 450.00001,300 L 475.00001,300 L 500.00001,300 L 500.00001,287.5 L 500.00001,275 L 487.50001,275 L 475.00001,275 L 475.00001,262.5 L 475.00001,250 L 462.50001,250 L 450.00001,250 L 450.00001,275 L 450.00001,300 L 437.50001,300 L 425.00001,300 L 425.00001,287.5 L 425.00001,275 L 412.50001,275 L 400.00001,275 L 400.00001,300 L 400.00001,325 L 412.50001,325 L 425.00001,325 L 425.00001,362.5 L 425.00001,400 L 437.50001,400 L 450.00001,400 L 450.00001,387.5 z M 375.00001,287.5 L 375.00001,200 L 287.50001,200 L 200,200 L 200,287.5 L 200,375 L 287.50001,375 L 375.00001,375 L 375.00001,287.5 z M 225,287.5 L 225,225 L 287.50001,225 L 350.00001,225 L 350.00001,287.5 L 350.00001,350 L 287.50001,350 L 225,350 L 225,287.5 z M 325.00001,287.5 L 325.00001,250 L 287.50001,250 L 250.00001,250 L 250.00001,287.5 L 250.00001,325 L 287.50001,325 L 325.00001,325 L 325.00001,287.5 z M 275.00001,287.5 L 275.00001,275 L 287.50001,275 L 300.00001,275 L 300.00001,287.5 L 300.00001,300 L 287.50001,300 L 275.00001,300 L 275.00001,287.5 z M 275.00001,162.5 L 275.00001,150 L 250.00001,150 L 225,150 L 225,162.5 L 225,175 L 250.00001,175 L 275.00001,175 L 275.00001,162.5 z M 400.00001,162.5 L 400.00001,150 L 387.50001,150 L 375.00001,150 L 375.00001,162.5 L 375.00001,175 L 387.50001,175 L 400.00001,175 L 400.00001,162.5 z M 500.00001,162.5 L 500.00001,150 L 512.50001,150 L 525.00001,150 L 525.00001,137.5 L 525.00001,125 L 500.00001,125 L 475.00001,125 L 475.00001,150 L 475.00001,175 L 487.50001,175 L 500.00001,175 L 500.00001,162.5 z M 425.00001,550 L 425.00001,525 L 437.50001,525 L 450.00001,525 L 450.00001,537.5 L 450.00001,550 L 475.00001,550 L 500.00001,550 L 500.00001,562.5 L 500.00001,575 L 462.50001,575 L 425.00001,575 L 425.00001,550 z M 550.00001,562.5 L 550.00001,550 L 537.50001,550 L 525.00001,550 L 525.00001,525 L 525.00001,500 L 512.50001,500 L 500.00001,500 L 500.00001,487.5 L 500.00001,475 L 512.50001,475 L 525.00001,475 L 525.00001,462.5 L 525.00001,450 L 550.00001,450 L 575.00001,450 L 575.00001,462.5 L 575.00001,475 L 550.00001,475 L 525.00001,475 L 525.00001,487.5 L 525.00001,500 L 537.50001,500 L 550.00001,500 L 550.00001,512.5 L 550.00001,525 L 562.50001,525 L 575.00001,525 L 575.00001,550 L 575.00001,575 L 562.50001,575 L 550.00001,575 L 550.00001,562.5 z M 200,537.5 L 200,525 L 212.5,525 L 225,525 L 225,537.5 L 225,550 L 212.5,550 L 200,550 L 200,537.5 z M 375.00001,537.5 L 375.00001,525 L 387.50001,525 L 400.00001,525 L 400.00001,537.5 L 400.00001,550 L 387.50001,550 L 375.00001,550 L 375.00001,537.5 z M 0,237.5 L 0,175 L 12.5,175 L 25,175 L 25,237.5 L 25,300 L 12.5,300 L 0,300 L 0,237.5 z M 75,62.5 L 75,50 L 87.5,50 L 100,50 L 100,62.5 L 100,75 L 87.5,75 L 75,75 L 75,62.5 z M 200,25 L 200,-2.8421709e-014 L 212.5,-2.8421709e-014 L 225,-2.8421709e-014 L 225,12.5 L 225,25 L 237.50001,25 L 250.00001,25 L 250.00001,37.5 L 250.00001,50 L 225,50 L 200,50 L 200,25 z M 550.00001,37.5 L 550.00001,25 L 562.50001,25 L 575.00001,25 L 575.00001,37.5 L 575.00001,50 L 562.50001,50 L 550.00001,50 L 550.00001,37.5 z "
     style="fill:#000000"
     id="path2161" />
</svg>
